<svg width="306.771mm" height="132.614mm" viewBox="0 0 306.771 132.614" xmlns="http://www.w3.org/2000/svg"><g id="svgGroup" stroke-linecap="round" fill-rule="evenodd" font-size="9pt" stroke="#ddd" stroke-width="0.25mm" fill="none" style="stroke:#ddd;stroke-width:0.25mm;fill:none"><path d="M 54.561 91.477 L 67.818 96.566 L 72.907 83.309 L 59.65 78.221 L 54.561 91.477 Z M 238.953 96.566 L 252.21 91.477 L 247.121 78.221 L 233.864 83.309 L 238.953 96.566 Z M 72.033 100.528 L 79.347 112.7 L 91.519 105.386 L 84.205 93.215 L 72.033 100.528 Z M 227.424 112.7 L 234.738 100.528 L 222.566 93.215 L 215.252 105.386 L 227.424 112.7 Z M 6.321 20.235 L 20.305 22.701 L 22.771 8.717 L 8.787 6.251 L 6.321 20.235 Z M 0 56.082 L 13.984 58.548 L 16.45 44.564 L 2.466 42.098 L 0 56.082 Z M 3.16 38.159 L 17.145 40.624 L 19.61 26.64 L 5.626 24.174 L 3.16 38.159 Z M 286.466 22.701 L 300.45 20.235 L 297.984 6.251 L 284 8.717 L 286.466 22.701 Z M 289.626 40.624 L 303.61 38.159 L 301.145 24.174 L 287.16 26.64 L 289.626 40.624 Z M 292.787 58.548 L 306.771 56.082 L 304.305 42.098 L 290.321 44.564 L 292.787 58.548 Z M 272.556 52.67 L 286.272 48.995 L 282.597 35.279 L 268.88 38.954 L 272.556 52.67 Z M 55.4 59.382 L 69.116 63.057 L 72.791 49.341 L 59.075 45.666 L 55.4 59.382 Z M 60.111 41.802 L 73.827 45.477 L 77.502 31.761 L 63.786 28.086 L 60.111 41.802 Z M 72.462 66.024 L 86.178 69.699 L 89.854 55.983 L 76.137 52.308 L 72.462 66.024 Z M 77.173 48.444 L 90.889 52.12 L 94.564 38.404 L 80.848 34.728 L 77.173 48.444 Z M 267.845 35.09 L 281.561 31.415 L 277.886 17.699 L 264.17 21.374 L 267.845 35.09 Z M 81.883 30.865 L 95.599 34.54 L 99.275 20.824 L 85.558 17.148 L 81.883 30.865 Z M 25.21 31.415 L 38.926 35.09 L 42.601 21.374 L 28.885 17.699 L 25.21 31.415 Z M 29.92 13.835 L 43.636 17.51 L 47.312 3.794 L 33.595 0.119 L 29.92 13.835 Z M 39.373 48.876 L 53.089 52.551 L 56.764 38.835 L 43.048 35.16 L 39.373 48.876 Z M 44.084 31.296 L 57.8 34.971 L 61.475 21.255 L 47.759 17.58 L 44.084 31.296 Z M 48.794 13.716 L 62.51 17.391 L 66.185 3.675 L 52.469 0 L 48.794 13.716 Z M 64.821 24.222 L 78.537 27.897 L 82.212 14.181 L 68.496 10.506 L 64.821 24.222 Z M 237.655 63.057 L 251.371 59.382 L 247.696 45.666 L 233.979 49.341 L 237.655 63.057 Z M 220.592 69.699 L 234.309 66.024 L 230.633 52.308 L 216.917 55.983 L 220.592 69.699 Z M 20.499 48.995 L 34.215 52.67 L 37.891 38.954 L 24.174 35.279 L 20.499 48.995 Z M 253.682 52.551 L 267.398 48.876 L 263.723 35.16 L 250.006 38.835 L 253.682 52.551 Z M 244.261 17.391 L 257.977 13.716 L 254.302 0 L 240.585 3.675 L 244.261 17.391 Z M 228.234 27.897 L 241.95 24.222 L 238.275 10.506 L 224.558 14.181 L 228.234 27.897 Z M 215.882 52.12 L 229.598 48.444 L 225.923 34.728 L 212.207 38.404 L 215.882 52.12 Z M 248.971 34.971 L 262.687 31.296 L 259.012 17.58 L 245.296 21.255 L 248.971 34.971 Z M 232.944 45.477 L 246.66 41.802 L 242.985 28.086 L 229.269 31.761 L 232.944 45.477 Z M 211.171 34.54 L 224.888 30.865 L 221.212 17.148 L 207.496 20.824 L 211.171 34.54 Z M 263.135 17.51 L 276.851 13.835 L 273.175 0.119 L 259.459 3.794 L 263.135 17.51 Z M 226.207 132.366 L 225.959 118.168 L 211.761 118.416 L 212.009 132.614 L 226.207 132.366 Z M 80.812 118.168 L 80.564 132.366 L 94.762 132.614 L 95.01 118.416 L 80.812 118.168 Z" vector-effect="non-scaling-stroke"/></g></svg>