<svg width="255.634mm" height="132.139mm" viewBox="0 0 255.634 132.139" xmlns="http://www.w3.org/2000/svg"><g id="svgGroup" stroke-linecap="round" fill-rule="evenodd" font-size="9pt" stroke="#ddd" stroke-width="0.25mm" fill="none" style="stroke:#ddd;stroke-width:0.25mm;fill:none"><path d="M 210.351 41.865 L 227.265 35.708 L 233.422 52.623 L 216.507 58.779 L 210.351 41.865 Z M 203.853 24.011 L 220.767 17.854 L 226.923 34.769 L 210.009 40.925 L 203.853 24.011 Z M 197.354 6.156 L 214.269 0 L 220.425 16.914 L 203.511 23.071 L 197.354 6.156 Z M 190.787 43.665 L 207.701 37.508 L 213.858 54.423 L 196.943 60.579 L 190.787 43.665 Z M 184.288 25.81 L 201.203 19.654 L 207.359 36.569 L 190.445 42.725 L 184.288 25.81 Z M 177.79 7.956 L 194.704 1.8 L 200.861 18.714 L 183.946 24.871 L 177.79 7.956 Z M 174.985 55.801 L 191.899 49.645 L 198.055 66.559 L 181.141 72.716 L 174.985 55.801 Z M 168.486 37.947 L 185.401 31.791 L 191.557 48.705 L 174.643 54.861 L 168.486 37.947 Z M 161.988 20.093 L 178.902 13.936 L 185.059 30.851 L 168.144 37.007 L 161.988 20.093 Z M 157.815 64.179 L 174.729 58.023 L 180.885 74.937 L 163.971 81.093 L 157.815 64.179 Z M 151.316 46.325 L 168.231 40.168 L 174.387 57.083 L 157.473 63.239 L 151.316 46.325 Z M 144.818 28.471 L 161.732 22.314 L 167.889 39.229 L 150.974 45.385 L 144.818 28.471 Z M 170.891 79.639 L 187.805 73.483 L 193.962 90.397 L 177.047 96.553 L 170.891 79.639 Z M 63.734 49.645 L 80.649 55.801 L 74.492 72.716 L 57.578 66.559 L 63.734 49.645 Z M 80.905 58.023 L 97.819 64.179 L 91.663 81.093 L 74.748 74.937 L 80.905 58.023 Z M 67.828 73.483 L 84.743 79.639 L 78.586 96.553 L 61.672 90.397 L 67.828 73.483 Z M 28.368 35.708 L 45.283 41.865 L 39.126 58.779 L 22.212 52.623 L 28.368 35.708 Z M 34.866 17.854 L 51.781 24.011 L 45.625 40.925 L 28.71 34.769 L 34.866 17.854 Z M 41.365 0 L 58.279 6.156 L 52.123 23.071 L 35.208 16.914 L 41.365 0 Z M 47.932 37.508 L 64.847 43.665 L 58.69 60.579 L 41.776 54.423 L 47.932 37.508 Z M 54.431 19.654 L 71.345 25.81 L 65.189 42.725 L 48.274 36.569 L 54.431 19.654 Z M 60.929 1.8 L 77.844 7.956 L 71.687 24.871 L 54.773 18.714 L 60.929 1.8 Z M 70.233 31.791 L 87.147 37.947 L 80.991 54.861 L 64.076 48.705 L 70.233 31.791 Z M 76.731 13.936 L 93.646 20.093 L 87.489 37.007 L 70.575 30.851 L 76.731 13.936 Z M 87.403 40.168 L 104.317 46.325 L 98.161 63.239 L 81.247 57.083 L 87.403 40.168 Z M 93.901 22.314 L 110.816 28.471 L 104.659 45.385 L 87.745 39.229 L 93.901 22.314 Z M 138.912 127.784 L 143.266 110.319 L 160.732 114.673 L 156.377 132.139 L 138.912 127.784 Z M 112.367 110.319 L 116.722 127.784 L 99.256 132.139 L 94.902 114.673 L 112.367 110.319 Z M 94.273 86.724 L 106.317 100.1 L 92.941 112.145 L 80.896 98.768 L 94.273 86.724 Z M 149.316 100.1 L 161.361 86.724 L 174.737 98.768 L 162.693 112.145 L 149.316 100.1 Z M 4.659 41.398 L 22.045 46.056 L 17.387 63.443 L 0 58.784 L 4.659 41.398 Z M 9.576 23.045 L 26.963 27.704 L 22.304 45.091 L 4.918 40.432 L 9.576 23.045 Z M 14.494 4.693 L 31.881 9.351 L 27.222 26.738 L 9.835 22.079 L 14.494 4.693 Z M 233.588 46.056 L 250.975 41.398 L 255.634 58.784 L 238.247 63.443 L 233.588 46.056 Z M 228.671 27.704 L 246.057 23.045 L 250.716 40.432 L 233.329 45.091 L 228.671 27.704 Z M 223.753 9.351 L 241.14 4.693 L 245.798 22.079 L 228.412 26.738 L 223.753 9.351 Z" vector-effect="non-scaling-stroke"/></g></svg>