<svg width="160.906mm" height="148.689mm" viewBox="0 0 160.906 148.689" xmlns="http://www.w3.org/2000/svg"><g id="svgGroup" stroke-linecap="round" fill-rule="evenodd" font-size="9pt" stroke="#ddd" stroke-width="0.25mm" fill="none" style="stroke:#ddd;stroke-width:0.25mm;fill:none"><path d="M 49.991 0.111 L 12.645 9.104 A 4 4 0 0 0 9.642 12.298 L 0.061 66.634 A 4 4 0 0 0 3.465 71.293 L 46.027 77.036 A 4 4 0 0 1 49.451 80.424 L 52.679 102.592 A 4 4 0 0 0 54.561 105.434 L 75.521 118.166 A 4 4 0 0 1 77.412 121.075 L 80.463 144.807 A 4 4 0 0 0 84.361 148.297 L 106.828 148.689 A 4 4 0 0 0 110.444 146.54 L 122.849 122.776 A 4 4 0 0 1 126.465 120.627 L 155.488 121.134 A 4 4 0 0 0 159.558 117.204 L 160.905 39.992 A 4 4 0 0 0 156.999 35.924 L 128.53 35.258 A 4 4 0 0 1 126.469 34.629 L 86.766 9.24 A 4 4 0 0 0 85.602 8.735 L 51.918 0.125 A 4 4 0 0 0 49.991 0.111 Z M 49.308 2.625 L 14.338 11.028 A 4 4 0 0 0 11.333 14.223 L 2.383 64.984 A 4 4 0 0 0 5.815 69.646 L 47.505 74.977 A 4 4 0 0 1 50.932 78.223 L 55.22 101.588 A 4 4 0 0 0 57.009 104.242 L 77.329 117.15 A 4 4 0 0 1 79.143 119.955 L 82.453 142.902 A 4 4 0 0 0 86.342 146.331 L 104.863 146.654 A 4 4 0 0 0 108.479 144.506 L 121.34 119.869 A 4 4 0 0 1 124.955 117.72 L 151.419 118.182 A 4 4 0 0 0 155.488 114.253 L 156.735 42.815 A 4 4 0 0 0 152.957 38.751 L 127.537 37.345 A 4 4 0 0 1 125.635 36.741 L 86.019 11.924 A 4 4 0 0 0 84.907 11.444 L 51.254 2.644 A 4 4 0 0 0 49.308 2.625 Z" vector-effect="non-scaling-stroke"/></g></svg>