<svg width="160.906mm" height="148.689mm" viewBox="0 0 160.906 148.689" xmlns="http://www.w3.org/2000/svg"><g id="svgGroup" stroke-linecap="round" fill-rule="evenodd" font-size="9pt" stroke="#ddd" stroke-width="0.25mm" fill="none" style="stroke:#ddd;stroke-width:0.25mm;fill:none"><path d="M 49.991 0.111 L 12.645 9.104 A 4 4 0 0 0 9.642 12.298 L 0.061 66.634 A 4 4 0 0 0 3.465 71.293 L 46.027 77.036 A 4 4 0 0 1 49.451 80.424 L 52.679 102.592 A 4 4 0 0 0 54.561 105.434 L 75.521 118.166 A 4 4 0 0 1 77.412 121.075 L 80.463 144.807 A 4 4 0 0 0 84.361 148.297 L 106.828 148.689 A 4 4 0 0 0 110.444 146.54 L 122.849 122.776 A 4 4 0 0 1 126.465 120.627 L 155.488 121.134 A 4 4 0 0 0 159.558 117.204 L 160.905 39.992 A 4 4 0 0 0 156.999 35.924 L 128.53 35.258 A 4 4 0 0 1 126.469 34.629 L 86.766 9.24 A 4 4 0 0 0 85.602 8.735 L 51.918 0.125 A 4 4 0 0 0 49.991 0.111 Z M 49.829 2.172 L 14.209 11.39 A 4 4 0 0 0 11.272 14.568 L 2.375 65.028 A 4 4 0 0 0 5.764 69.684 L 48.501 75.614 A 4 4 0 0 1 51.907 78.986 L 55.268 101.514 A 4 4 0 0 0 57.058 104.287 L 77.543 117.484 A 4 4 0 0 1 79.339 120.298 L 82.469 142.881 A 4 4 0 0 0 86.361 146.331 L 104.863 146.654 A 4 4 0 0 0 108.479 144.506 L 120.884 120.741 A 4 4 0 0 1 124.5 118.593 L 152.524 119.082 A 4 4 0 0 0 156.593 115.152 L 157.871 41.918 A 4 4 0 0 0 153.987 37.85 L 127.614 37.092 A 4 4 0 0 1 125.574 36.463 L 85.863 11.069 A 4 4 0 0 0 84.697 10.563 L 51.821 2.169 A 4 4 0 0 0 49.829 2.172 Z" vector-effect="non-scaling-stroke"/></g></svg>