<svg width="311.173mm" height="136.874mm" viewBox="0 0 311.173 136.874" xmlns="http://www.w3.org/2000/svg"><g id="svgGroup" stroke-linecap="round" fill-rule="evenodd" font-size="9pt" stroke="#ddd" stroke-width="0.25mm" fill="none" style="stroke:#ddd;stroke-width:0.25mm;fill:none"><path d="M 294.426 16.803 L 16.747 16.803 L 10.426 52.65 L 300.747 52.65 L 294.426 16.803 Z M 0 59.95 L 17.727 63.076 L 20.852 45.349 L 3.126 42.224 L 0 59.95 Z M 3.16 42.027 L 20.887 45.152 L 24.013 27.426 L 6.286 24.3 L 3.16 42.027 Z M 6.321 24.103 L 24.047 27.229 L 27.173 9.502 L 9.446 6.377 L 6.321 24.103 Z M 293.446 63.076 L 311.173 59.95 L 308.047 42.224 L 290.321 45.349 L 293.446 63.076 Z M 290.286 45.152 L 308.013 42.027 L 304.887 24.3 L 287.16 27.426 L 290.286 45.152 Z M 287.126 27.229 L 304.852 24.103 L 301.727 6.377 L 284 9.502 L 287.126 27.229 Z M 54.308 94.897 L 71.112 101.348 L 77.563 84.543 L 60.758 78.093 L 54.308 94.897 Z M 240.061 101.348 L 256.865 94.897 L 250.415 78.093 L 233.61 84.543 L 240.061 101.348 Z M 230.275 117.634 L 239.546 102.205 L 224.117 92.934 L 214.846 108.363 L 230.275 117.634 Z M 71.627 102.205 L 80.898 117.634 L 96.327 108.363 L 87.056 92.934 L 71.627 102.205 Z M 81.147 118.563 L 80.832 136.56 L 98.83 136.874 L 99.144 118.877 L 81.147 118.563 Z M 230.341 136.56 L 230.026 118.563 L 212.029 118.877 L 212.343 136.874 L 230.341 136.56 Z M 48.668 17.387 L 66.055 22.045 L 70.714 4.659 L 53.327 0 L 48.668 17.387 Z M 64.695 27.893 L 82.082 32.551 L 86.74 15.165 L 69.354 10.506 L 64.695 27.893 Z M 77.047 52.115 L 94.433 56.774 L 99.092 39.387 L 81.706 34.728 L 77.047 52.115 Z M 81.757 34.535 L 99.144 39.194 L 103.803 21.807 L 86.416 17.148 L 81.757 34.535 Z M 25.084 35.086 L 42.47 39.744 L 47.129 22.358 L 29.742 17.699 L 25.084 35.086 Z M 43.958 34.967 L 61.344 39.625 L 66.003 22.239 L 48.616 17.58 L 43.958 34.967 Z M 55.274 63.052 L 72.661 67.711 L 77.319 50.325 L 59.933 45.666 L 55.274 63.052 Z M 59.985 45.473 L 77.371 50.131 L 82.03 32.745 L 64.643 28.086 L 59.985 45.473 Z M 72.336 69.695 L 89.723 74.354 L 94.382 56.967 L 76.995 52.308 L 72.336 69.695 Z M 20.373 52.665 L 37.76 57.324 L 42.419 39.938 L 25.032 35.279 L 20.373 52.665 Z M 29.794 17.506 L 47.181 22.165 L 51.84 4.778 L 34.453 0.119 L 29.794 17.506 Z M 39.247 52.546 L 56.634 57.205 L 61.293 39.818 L 43.906 35.16 L 39.247 52.546 Z M 273.413 57.324 L 290.8 52.665 L 286.141 35.279 L 268.754 39.938 L 273.413 57.324 Z M 268.703 39.744 L 286.089 35.086 L 281.431 17.699 L 264.044 22.358 L 268.703 39.744 Z M 254.539 57.205 L 271.926 52.546 L 267.267 35.16 L 249.88 39.818 L 254.539 57.205 Z M 245.118 22.045 L 262.505 17.387 L 257.846 0 L 240.459 4.659 L 245.118 22.045 Z M 233.802 50.131 L 251.188 45.473 L 246.53 28.086 L 229.143 32.745 L 233.802 50.131 Z M 263.992 22.165 L 281.379 17.506 L 276.72 0.119 L 259.333 4.778 L 263.992 22.165 Z M 238.512 67.711 L 255.899 63.052 L 251.24 45.666 L 233.854 50.325 L 238.512 67.711 Z M 229.091 32.551 L 246.478 27.893 L 241.819 10.506 L 224.433 15.165 L 229.091 32.551 Z M 221.45 74.354 L 238.837 69.695 L 234.178 52.308 L 216.791 56.967 L 221.45 74.354 Z M 216.74 56.774 L 234.126 52.115 L 229.467 34.728 L 212.081 39.387 L 216.74 56.774 Z M 212.029 39.194 L 229.416 34.535 L 224.757 17.148 L 207.37 21.807 L 212.029 39.194 Z M 249.829 39.625 L 267.215 34.967 L 262.557 17.58 L 245.17 22.239 L 249.829 39.625 Z" vector-effect="non-scaling-stroke"/></g></svg>