<svg width="314.996mm" height="148.853mm" viewBox="0 0 314.996 148.853" xmlns="http://www.w3.org/2000/svg"><g id="svgGroup" stroke-linecap="round" fill-rule="evenodd" font-size="9pt" stroke="#ddd" stroke-width="0.25mm" fill="none" style="stroke:#ddd;stroke-width:0.25mm;fill:none"><path d="M 51.619 0 L 10.759 9.839 L 0 70.857 L 49.678 77.561 L 53.613 104.578 L 77.829 119.287 L 81.566 148.358 L 109.962 148.853 L 124.656 120.705 L 160.15 121.325 L 161.637 36.138 L 128.074 35.353 L 86.887 9.015 L 51.619 0 Z M 62.786 100.494 L 76.043 105.582 L 81.132 92.326 L 67.875 87.237 L 62.786 100.494 Z M 247.178 105.582 L 260.435 100.494 L 255.346 87.237 L 242.089 92.326 L 247.178 105.582 Z M 80.258 109.544 L 87.572 121.716 L 99.744 114.403 L 92.43 102.231 L 80.258 109.544 Z M 235.649 121.716 L 242.963 109.544 L 230.791 102.231 L 223.477 114.403 L 235.649 121.716 Z M 14.546 29.251 L 28.53 31.717 L 30.996 17.733 L 17.012 15.267 L 14.546 29.251 Z M 8.225 65.098 L 22.209 67.564 L 24.675 53.58 L 10.691 51.114 L 8.225 65.098 Z M 11.385 47.175 L 25.37 49.641 L 27.836 35.656 L 13.851 33.19 L 11.385 47.175 Z M 294.691 31.717 L 308.675 29.251 L 306.209 15.267 L 292.225 17.733 L 294.691 31.717 Z M 297.851 49.641 L 311.836 47.175 L 309.37 33.19 L 295.385 35.656 L 297.851 49.641 Z M 301.012 67.564 L 314.996 65.098 L 312.53 51.114 L 298.546 53.58 L 301.012 67.564 Z M 280.781 61.686 L 294.497 58.011 L 290.822 44.295 L 277.105 47.97 L 280.781 61.686 Z M 63.625 68.398 L 77.341 72.073 L 81.016 58.357 L 67.3 54.682 L 63.625 68.398 Z M 68.336 50.818 L 82.052 54.493 L 85.727 40.777 L 72.011 37.102 L 68.336 50.818 Z M 80.687 75.04 L 94.403 78.716 L 98.079 65 L 84.362 61.324 L 80.687 75.04 Z M 85.398 57.461 L 99.114 61.136 L 102.789 47.42 L 89.073 43.744 L 85.398 57.461 Z M 276.07 44.107 L 289.786 40.431 L 286.111 26.715 L 272.395 30.39 L 276.07 44.107 Z M 90.108 39.881 L 103.824 43.556 L 107.5 29.84 L 93.784 26.165 L 90.108 39.881 Z M 33.435 40.431 L 47.151 44.107 L 50.826 30.39 L 37.11 26.715 L 33.435 40.431 Z M 38.145 22.851 L 51.861 26.527 L 55.537 12.811 L 41.82 9.135 L 38.145 22.851 Z M 47.598 57.892 L 61.314 61.567 L 64.989 47.851 L 51.273 44.176 L 47.598 57.892 Z M 52.309 40.312 L 66.025 43.987 L 69.7 30.271 L 55.984 26.596 L 52.309 40.312 Z M 57.019 22.732 L 70.735 26.408 L 74.411 12.691 L 60.694 9.016 L 57.019 22.732 Z M 73.046 33.238 L 86.762 36.914 L 90.437 23.197 L 76.721 19.522 L 73.046 33.238 Z M 245.88 72.073 L 259.596 68.398 L 255.921 54.682 L 242.205 58.357 L 245.88 72.073 Z M 228.818 78.716 L 242.534 75.04 L 238.858 61.324 L 225.142 65 L 228.818 78.716 Z M 28.724 58.011 L 42.44 61.686 L 46.116 47.97 L 32.399 44.295 L 28.724 58.011 Z M 261.907 61.567 L 275.623 57.892 L 271.948 44.176 L 258.231 47.851 L 261.907 61.567 Z M 252.486 26.408 L 266.202 22.732 L 262.527 9.016 L 248.81 12.691 L 252.486 26.408 Z M 236.459 36.914 L 250.175 33.238 L 246.5 19.522 L 232.784 23.197 L 236.459 36.914 Z M 224.107 61.136 L 237.823 57.461 L 234.148 43.744 L 220.432 47.42 L 224.107 61.136 Z M 257.196 43.987 L 270.912 40.312 L 267.237 26.596 L 253.521 30.271 L 257.196 43.987 Z M 241.169 54.493 L 254.885 50.818 L 251.21 37.102 L 237.494 40.777 L 241.169 54.493 Z M 219.397 43.556 L 233.113 39.881 L 229.437 26.165 L 215.721 29.84 L 219.397 43.556 Z M 271.36 26.527 L 285.076 22.851 L 281.401 9.135 L 267.684 12.811 L 271.36 26.527 Z M 234.432 141.383 L 234.184 127.185 L 219.986 127.432 L 220.234 141.63 L 234.432 141.383 Z M 89.037 127.185 L 88.789 141.383 L 102.987 141.63 L 103.235 127.432 L 89.037 127.185 Z" vector-effect="non-scaling-stroke"/></g></svg>