<svg width="311.173mm" height="136.874mm" viewBox="0 0 311.173 136.874" xmlns="http://www.w3.org/2000/svg"><g id="svgGroup" stroke-linecap="round" fill-rule="evenodd" font-size="9pt" stroke="#ddd" stroke-width="0.25mm" fill="none" style="stroke:#ddd;stroke-width:0.25mm;fill:none"><path d="M 3.126 42.224 L 20.852 45.349 L 17.727 63.076 L 0 59.95 L 3.126 42.224 Z M 6.286 24.3 L 24.013 27.426 L 20.887 45.152 L 3.16 42.027 L 6.286 24.3 Z M 9.446 6.377 L 27.173 9.502 L 24.047 27.229 L 6.321 24.103 L 9.446 6.377 Z M 290.321 45.349 L 308.047 42.224 L 311.173 59.95 L 293.446 63.076 L 290.321 45.349 Z M 287.16 27.426 L 304.887 24.3 L 308.013 42.027 L 290.286 45.152 L 287.16 27.426 Z M 284 9.502 L 301.727 6.377 L 304.852 24.103 L 287.126 27.229 L 284 9.502 Z M 60.758 78.093 L 77.563 84.543 L 71.112 101.348 L 54.308 94.897 L 60.758 78.093 Z M 233.61 84.543 L 250.415 78.093 L 256.865 94.897 L 240.061 101.348 L 233.61 84.543 Z M 214.846 108.363 L 224.117 92.934 L 239.546 102.205 L 230.275 117.634 L 214.846 108.363 Z M 87.056 92.934 L 96.327 108.363 L 80.898 117.634 L 71.627 102.205 L 87.056 92.934 Z M 99.144 118.877 L 98.83 136.874 L 80.832 136.56 L 81.147 118.563 L 99.144 118.877 Z M 212.343 136.874 L 212.029 118.877 L 230.026 118.563 L 230.341 136.56 L 212.343 136.874 Z M 53.327 0 L 70.714 4.659 L 66.055 22.045 L 48.668 17.387 L 53.327 0 Z M 64.643 28.086 L 82.03 32.745 L 77.371 50.131 L 59.985 45.473 L 64.643 28.086 Z M 69.354 10.506 L 86.74 15.165 L 82.082 32.551 L 64.695 27.893 L 69.354 10.506 Z M 81.706 34.728 L 99.092 39.387 L 94.433 56.774 L 77.047 52.115 L 81.706 34.728 Z M 86.416 17.148 L 103.803 21.807 L 99.144 39.194 L 81.757 34.535 L 86.416 17.148 Z M 29.742 17.699 L 47.129 22.358 L 42.47 39.744 L 25.084 35.086 L 29.742 17.699 Z M 48.616 17.58 L 66.003 22.239 L 61.344 39.625 L 43.958 34.967 L 48.616 17.58 Z M 59.933 45.666 L 77.319 50.325 L 72.661 67.711 L 55.274 63.052 L 59.933 45.666 Z M 76.995 52.308 L 94.382 56.967 L 89.723 74.354 L 72.336 69.695 L 76.995 52.308 Z M 25.032 35.279 L 42.419 39.938 L 37.76 57.324 L 20.373 52.665 L 25.032 35.279 Z M 34.453 0.119 L 51.84 4.778 L 47.181 22.165 L 29.794 17.506 L 34.453 0.119 Z M 43.906 35.16 L 61.293 39.818 L 56.634 57.205 L 39.247 52.546 L 43.906 35.16 Z M 268.754 39.938 L 286.141 35.279 L 290.8 52.665 L 273.413 57.324 L 268.754 39.938 Z M 264.044 22.358 L 281.431 17.699 L 286.089 35.086 L 268.703 39.744 L 264.044 22.358 Z M 249.88 39.818 L 267.267 35.16 L 271.926 52.546 L 254.539 57.205 L 249.88 39.818 Z M 240.459 4.659 L 257.846 0 L 262.505 17.387 L 245.118 22.045 L 240.459 4.659 Z M 229.143 32.745 L 246.53 28.086 L 251.188 45.473 L 233.802 50.131 L 229.143 32.745 Z M 259.333 4.778 L 276.72 0.119 L 281.379 17.506 L 263.992 22.165 L 259.333 4.778 Z M 233.854 50.325 L 251.24 45.666 L 255.899 63.052 L 238.512 67.711 L 233.854 50.325 Z M 224.433 15.165 L 241.819 10.506 L 246.478 27.893 L 229.091 32.551 L 224.433 15.165 Z M 216.791 56.967 L 234.178 52.308 L 238.837 69.695 L 221.45 74.354 L 216.791 56.967 Z M 212.081 39.387 L 229.467 34.728 L 234.126 52.115 L 216.74 56.774 L 212.081 39.387 Z M 207.37 21.807 L 224.757 17.148 L 229.416 34.535 L 212.029 39.194 L 207.37 21.807 Z M 245.17 22.239 L 262.557 17.58 L 267.215 34.967 L 249.829 39.625 L 245.17 22.239 Z" vector-effect="non-scaling-stroke"/></g></svg>