<svg width="307.86mm" height="133.978mm" viewBox="0 0 307.86 133.978" xmlns="http://www.w3.org/2000/svg"><g id="svgGroup" stroke-linecap="round" fill-rule="evenodd" font-size="9pt" stroke="#ddd" stroke-width="0.25mm" fill="none" style="stroke:#ddd;stroke-width:0.25mm;fill:none"><path d="M 286.466 22.776 L 301.435 20.137 L 298.969 6.152 L 284 8.792 L 286.466 22.776 Z M 292.891 59.214 L 307.86 56.574 L 305.394 42.59 L 290.425 45.23 L 292.891 59.214 Z M 289.678 40.995 L 304.647 38.356 L 302.182 24.371 L 287.212 27.011 L 289.678 40.995 Z M 0 56.574 L 14.969 59.214 L 17.435 45.23 L 2.466 42.59 L 0 56.574 Z M 3.212 38.356 L 18.182 40.995 L 20.647 27.011 L 5.678 24.371 L 3.212 38.356 Z M 6.425 20.137 L 21.394 22.776 L 23.86 8.792 L 8.891 6.152 L 6.425 20.137 Z M 267.586 35.561 L 282.268 31.627 L 278.592 17.911 L 263.91 21.845 L 267.586 35.561 Z M 253.21 53.389 L 267.892 49.455 L 264.217 35.739 L 249.535 39.673 L 253.21 53.389 Z M 73.636 66.759 L 88.319 70.693 L 91.994 56.977 L 77.312 53.043 L 73.636 66.759 Z M 262.797 17.692 L 277.48 13.758 L 273.804 0.041 L 259.122 3.976 L 262.797 17.692 Z M 49.544 13.716 L 64.226 17.65 L 67.901 3.934 L 53.219 0 L 49.544 13.716 Z M 56.284 60.039 L 70.967 63.973 L 74.642 50.257 L 59.96 46.323 L 56.284 60.039 Z M 20.804 49.497 L 35.486 53.431 L 39.161 39.715 L 24.479 35.781 L 20.804 49.497 Z M 25.592 31.627 L 40.274 35.561 L 43.949 21.845 L 29.267 17.911 L 25.592 31.627 Z M 30.38 13.758 L 45.062 17.692 L 48.738 3.976 L 34.056 0.041 L 30.38 13.758 Z M 39.968 49.455 L 54.65 53.389 L 58.325 39.673 L 43.643 35.739 L 39.968 49.455 Z M 44.756 31.586 L 59.438 35.52 L 63.113 21.804 L 48.431 17.87 L 44.756 31.586 Z M 61.073 42.169 L 75.755 46.104 L 79.43 32.387 L 64.748 28.453 L 61.073 42.169 Z M 65.861 24.3 L 80.543 28.234 L 84.218 14.518 L 69.536 10.584 L 65.861 24.3 Z M 243.634 17.65 L 258.316 13.716 L 254.641 0 L 239.959 3.934 L 243.634 17.65 Z M 236.893 63.973 L 251.575 60.039 L 247.9 46.323 L 233.218 50.257 L 236.893 63.973 Z M 214.753 52.824 L 229.435 48.889 L 225.76 35.173 L 211.078 39.107 L 214.753 52.824 Z M 78.425 48.889 L 93.107 52.824 L 96.782 39.107 L 82.1 35.173 L 78.425 48.889 Z M 83.213 31.02 L 97.895 34.954 L 101.57 21.238 L 86.888 17.304 L 83.213 31.02 Z M 272.374 53.431 L 287.056 49.497 L 283.381 35.781 L 268.699 39.715 L 272.374 53.431 Z M 248.422 35.52 L 263.104 31.586 L 259.429 17.87 L 244.747 21.804 L 248.422 35.52 Z M 232.105 46.104 L 246.787 42.169 L 243.112 28.453 L 228.43 32.387 L 232.105 46.104 Z M 227.317 28.234 L 241.999 24.3 L 238.324 10.584 L 223.642 14.518 L 227.317 28.234 Z M 219.541 70.693 L 234.223 66.759 L 230.548 53.043 L 215.866 56.977 L 219.541 70.693 Z M 209.965 34.954 L 224.647 31.02 L 220.972 17.304 L 206.29 21.238 L 209.965 34.954 Z M 226.598 113.993 L 234.427 100.964 L 222.255 93.65 L 214.427 106.679 L 226.598 113.993 Z M 73.433 100.964 L 81.261 113.993 L 93.433 106.679 L 85.605 93.65 L 73.433 100.964 Z M 82.478 118.533 L 82.213 133.731 L 96.411 133.978 L 96.676 118.781 L 82.478 118.533 Z M 225.647 133.731 L 225.382 118.533 L 211.184 118.781 L 211.449 133.978 L 225.647 133.731 Z M 55.752 92.162 L 69.942 97.61 L 75.031 84.353 L 60.84 78.906 L 55.752 92.162 Z M 237.918 97.61 L 252.108 92.162 L 247.019 78.906 L 232.829 84.353 L 237.918 97.61 Z M 83.262 73.531 L 84.245 69.861 L 82.796 69.472 L 81.813 73.143 L 83.262 73.531 Z M 49.593 56.227 L 50.577 52.557 L 49.128 52.169 L 48.144 55.839 L 49.593 56.227 Z M 65.91 66.811 L 66.893 63.141 L 65.444 62.752 L 64.461 66.423 L 65.91 66.811 Z M 75.486 31.072 L 76.47 27.401 L 75.021 27.013 L 74.037 30.684 L 75.486 31.072 Z M 70.698 48.941 L 71.681 45.271 L 70.232 44.883 L 69.249 48.553 L 70.698 48.941 Z M 88.05 55.661 L 89.033 51.991 L 87.584 51.603 L 86.601 55.273 L 88.05 55.661 Z M 30.429 56.269 L 31.413 52.598 L 29.964 52.21 L 28.98 55.881 L 30.429 56.269 Z M 59.169 20.488 L 60.153 16.818 L 58.704 16.429 L 57.72 20.1 L 59.169 20.488 Z M 54.381 38.358 L 55.365 34.687 L 53.916 34.299 L 52.932 37.969 L 54.381 38.358 Z M 92.838 37.792 L 93.822 34.121 L 92.373 33.733 L 91.389 37.404 L 92.838 37.792 Z M 40.006 20.53 L 40.989 16.859 L 39.54 16.471 L 38.557 20.141 L 40.006 20.53 Z M 35.217 38.399 L 36.201 34.729 L 34.752 34.34 L 33.769 38.011 L 35.217 38.399 Z M 16.604 26.044 L 17.264 22.302 L 15.786 22.041 L 15.127 25.783 L 16.604 26.044 Z M 13.391 44.263 L 14.051 40.521 L 12.574 40.26 L 11.914 44.002 L 13.391 44.263 Z M 10.179 62.482 L 10.839 58.739 L 9.362 58.479 L 8.702 62.221 L 10.179 62.482 Z M 54.643 79.981 L 58.191 81.343 L 58.729 79.943 L 55.181 78.581 L 54.643 79.981 Z M 80.059 90.683 L 82.016 93.94 L 83.302 93.167 L 81.345 89.91 L 80.059 90.683 Z M 97.245 113.39 L 97.179 117.189 L 98.678 117.215 L 98.745 113.416 L 97.245 113.39 Z" vector-effect="non-scaling-stroke"/></g></svg>