<svg width="307.86mm" height="133.978mm" viewBox="0 0 307.86 133.978" xmlns="http://www.w3.org/2000/svg"><g id="svgGroup" stroke-linecap="round" fill-rule="evenodd" font-size="9pt" stroke="#ddd" stroke-width="0.25mm" fill="none" style="stroke:#ddd;stroke-width:0.25mm;fill:none"><path d="M 286.466 22.776 L 301.435 20.137 L 298.969 6.152 L 284 8.792 L 286.466 22.776 Z M 292.891 59.214 L 307.86 56.574 L 305.394 42.59 L 290.425 45.23 L 292.891 59.214 Z M 289.678 40.995 L 304.647 38.356 L 302.182 24.371 L 287.212 27.011 L 289.678 40.995 Z M 0 56.574 L 14.969 59.214 L 17.435 45.23 L 2.466 42.59 L 0 56.574 Z M 3.212 38.356 L 18.182 40.995 L 20.647 27.011 L 5.678 24.371 L 3.212 38.356 Z M 6.425 20.137 L 21.394 22.776 L 23.86 8.792 L 8.891 6.152 L 6.425 20.137 Z M 267.586 35.561 L 282.268 31.627 L 278.592 17.911 L 263.91 21.845 L 267.586 35.561 Z M 253.21 53.389 L 267.892 49.455 L 264.217 35.739 L 249.535 39.673 L 253.21 53.389 Z M 73.636 66.759 L 88.319 70.693 L 91.994 56.977 L 77.312 53.043 L 73.636 66.759 Z M 262.797 17.692 L 277.48 13.758 L 273.804 0.041 L 259.122 3.976 L 262.797 17.692 Z M 49.544 13.716 L 64.226 17.65 L 67.901 3.934 L 53.219 0 L 49.544 13.716 Z M 56.284 60.039 L 70.967 63.973 L 74.642 50.257 L 59.96 46.323 L 56.284 60.039 Z M 20.804 49.497 L 35.486 53.431 L 39.161 39.715 L 24.479 35.781 L 20.804 49.497 Z M 25.592 31.627 L 40.274 35.561 L 43.949 21.845 L 29.267 17.911 L 25.592 31.627 Z M 30.38 13.758 L 45.062 17.692 L 48.738 3.976 L 34.056 0.041 L 30.38 13.758 Z M 39.968 49.455 L 54.65 53.389 L 58.325 39.673 L 43.643 35.739 L 39.968 49.455 Z M 44.756 31.586 L 59.438 35.52 L 63.113 21.804 L 48.431 17.87 L 44.756 31.586 Z M 61.073 42.169 L 75.755 46.104 L 79.43 32.387 L 64.748 28.453 L 61.073 42.169 Z M 65.861 24.3 L 80.543 28.234 L 84.218 14.518 L 69.536 10.584 L 65.861 24.3 Z M 243.634 17.65 L 258.316 13.716 L 254.641 0 L 239.959 3.934 L 243.634 17.65 Z M 236.893 63.973 L 251.575 60.039 L 247.9 46.323 L 233.218 50.257 L 236.893 63.973 Z M 214.753 52.824 L 229.435 48.889 L 225.76 35.173 L 211.078 39.107 L 214.753 52.824 Z M 78.425 48.889 L 93.107 52.824 L 96.782 39.107 L 82.1 35.173 L 78.425 48.889 Z M 83.213 31.02 L 97.895 34.954 L 101.57 21.238 L 86.888 17.304 L 83.213 31.02 Z M 272.374 53.431 L 287.056 49.497 L 283.381 35.781 L 268.699 39.715 L 272.374 53.431 Z M 248.422 35.52 L 263.104 31.586 L 259.429 17.87 L 244.747 21.804 L 248.422 35.52 Z M 232.105 46.104 L 246.787 42.169 L 243.112 28.453 L 228.43 32.387 L 232.105 46.104 Z M 227.317 28.234 L 241.999 24.3 L 238.324 10.584 L 223.642 14.518 L 227.317 28.234 Z M 219.541 70.693 L 234.223 66.759 L 230.548 53.043 L 215.866 56.977 L 219.541 70.693 Z M 209.965 34.954 L 224.647 31.02 L 220.972 17.304 L 206.29 21.238 L 209.965 34.954 Z M 226.598 113.993 L 234.427 100.964 L 222.255 93.65 L 214.427 106.679 L 226.598 113.993 Z M 73.433 100.964 L 81.261 113.993 L 93.433 106.679 L 85.605 93.65 L 73.433 100.964 Z M 82.478 118.533 L 82.213 133.731 L 96.411 133.978 L 96.676 118.781 L 82.478 118.533 Z M 225.647 133.731 L 225.382 118.533 L 211.184 118.781 L 211.449 133.978 L 225.647 133.731 Z M 55.752 92.162 L 69.942 97.61 L 75.031 84.353 L 60.84 78.906 L 55.752 92.162 Z M 237.918 97.61 L 252.108 92.162 L 247.019 78.906 L 232.829 84.353 L 237.918 97.61 Z M 56.078 82.942 L 58.228 77.34 L 57.294 76.982 L 55.144 82.584 L 56.078 82.942 Z M 94.953 115.75 L 100.953 115.855 L 100.97 114.855 L 94.971 114.75 L 94.953 115.75 Z M 36.746 18.207 L 42.541 19.76 L 42.8 18.794 L 37.005 17.241 L 36.746 18.207 Z M 31.958 36.076 L 37.753 37.629 L 38.012 36.663 L 32.216 35.11 L 31.958 36.076 Z M 27.169 53.946 L 32.965 55.499 L 33.224 54.533 L 27.428 52.98 L 27.169 53.946 Z M 55.909 18.165 L 61.705 19.718 L 61.964 18.752 L 56.168 17.199 L 55.909 18.165 Z M 51.121 36.035 L 56.917 37.588 L 57.176 36.622 L 51.38 35.069 L 51.121 36.035 Z M 62.65 64.488 L 68.445 66.041 L 68.704 65.075 L 62.909 63.522 L 62.65 64.488 Z M 46.333 53.904 L 52.129 55.457 L 52.387 54.491 L 46.592 52.939 L 46.333 53.904 Z M 67.438 46.619 L 73.234 48.171 L 73.492 47.206 L 67.697 45.653 L 67.438 46.619 Z M 89.578 35.469 L 95.374 37.022 L 95.633 36.056 L 89.837 34.503 L 89.578 35.469 Z M 72.226 28.749 L 78.022 30.302 L 78.281 29.336 L 72.485 27.783 L 72.226 28.749 Z M 84.79 53.339 L 90.586 54.891 L 90.844 53.926 L 85.049 52.373 L 84.79 53.339 Z M 80.002 71.208 L 85.797 72.761 L 86.056 71.795 L 80.261 70.242 L 80.002 71.208 Z M 79.367 93.899 L 84.51 90.808 L 83.995 89.951 L 78.852 93.041 L 79.367 93.899 Z M 9.941 42.233 L 15.85 43.275 L 16.024 42.29 L 10.115 41.248 L 9.941 42.233 Z M 6.729 60.452 L 12.638 61.494 L 12.811 60.509 L 6.903 59.467 L 6.729 60.452 Z M 13.154 24.014 L 19.063 25.056 L 19.236 24.071 L 13.328 23.029 L 13.154 24.014 Z" vector-effect="non-scaling-stroke"/></g></svg>