<svg width="326.168mm" height="136.874mm" viewBox="0 0 326.168 136.874" xmlns="http://www.w3.org/2000/svg"><g id="svgGroup" stroke-linecap="round" fill-rule="evenodd" font-size="9pt" stroke="#ddd" stroke-width="0.25mm" fill="none" style="stroke:#ddd;stroke-width:0.25mm;fill:none"><path d="M 319.847 13.642 L 6.321 13.642 L 0 49.489 L 326.168 49.489 L 319.847 13.642 Z M 7.497 59.95 L 25.224 63.076 L 28.35 45.349 L 10.623 42.224 L 7.497 59.95 Z M 10.658 42.027 L 28.384 45.152 L 31.51 27.426 L 13.783 24.3 L 10.658 42.027 Z M 13.818 24.103 L 31.545 27.229 L 34.67 9.502 L 16.944 6.377 L 13.818 24.103 Z M 300.944 63.076 L 318.67 59.95 L 315.545 42.224 L 297.818 45.349 L 300.944 63.076 Z M 297.783 45.152 L 315.51 42.027 L 312.384 24.3 L 294.658 27.426 L 297.783 45.152 Z M 294.623 27.229 L 312.35 24.103 L 309.224 6.377 L 291.497 9.502 L 294.623 27.229 Z M 61.805 94.897 L 78.609 101.348 L 85.06 84.543 L 68.256 78.093 L 61.805 94.897 Z M 247.558 101.348 L 264.363 94.897 L 257.912 78.093 L 241.108 84.543 L 247.558 101.348 Z M 237.773 117.634 L 247.043 102.205 L 231.614 92.934 L 222.344 108.363 L 237.773 117.634 Z M 79.124 102.205 L 88.395 117.634 L 103.824 108.363 L 94.554 92.934 L 79.124 102.205 Z M 88.644 118.563 L 88.33 136.56 L 106.327 136.874 L 106.641 118.877 L 88.644 118.563 Z M 237.838 136.56 L 237.524 118.563 L 219.527 118.877 L 219.841 136.874 L 237.838 136.56 Z M 56.166 17.387 L 73.552 22.045 L 78.211 4.659 L 60.824 0 L 56.166 17.387 Z M 72.192 27.893 L 89.579 32.551 L 94.238 15.165 L 76.851 10.506 L 72.192 27.893 Z M 84.544 52.115 L 101.931 56.774 L 106.59 39.387 L 89.203 34.728 L 84.544 52.115 Z M 89.255 34.535 L 106.641 39.194 L 111.3 21.807 L 93.913 17.148 L 89.255 34.535 Z M 32.581 35.086 L 49.968 39.744 L 54.626 22.358 L 37.24 17.699 L 32.581 35.086 Z M 51.455 34.967 L 68.842 39.625 L 73.5 22.239 L 56.114 17.58 L 51.455 34.967 Z M 62.771 63.052 L 80.158 67.711 L 84.817 50.325 L 67.43 45.666 L 62.771 63.052 Z M 67.482 45.473 L 84.869 50.131 L 89.527 32.745 L 72.141 28.086 L 67.482 45.473 Z M 79.834 69.695 L 97.22 74.354 L 101.879 56.967 L 84.492 52.308 L 79.834 69.695 Z M 27.871 52.665 L 45.257 57.324 L 49.916 39.938 L 32.529 35.279 L 27.871 52.665 Z M 37.292 17.506 L 54.678 22.165 L 59.337 4.778 L 41.95 0.119 L 37.292 17.506 Z M 46.745 52.546 L 64.131 57.205 L 68.79 39.818 L 51.403 35.16 L 46.745 52.546 Z M 280.911 57.324 L 298.297 52.665 L 293.638 35.279 L 276.252 39.938 L 280.911 57.324 Z M 276.2 39.744 L 293.587 35.086 L 288.928 17.699 L 271.541 22.358 L 276.2 39.744 Z M 262.037 57.205 L 279.423 52.546 L 274.765 35.16 L 257.378 39.818 L 262.037 57.205 Z M 252.616 22.045 L 270.002 17.387 L 265.344 0 L 247.957 4.659 L 252.616 22.045 Z M 241.299 50.131 L 258.686 45.473 L 254.027 28.086 L 236.64 32.745 L 241.299 50.131 Z M 271.49 22.165 L 288.876 17.506 L 284.217 0.119 L 266.831 4.778 L 271.49 22.165 Z M 246.01 67.711 L 263.396 63.052 L 258.738 45.666 L 241.351 50.325 L 246.01 67.711 Z M 236.589 32.551 L 253.975 27.893 L 249.317 10.506 L 231.93 15.165 L 236.589 32.551 Z M 228.947 74.354 L 246.334 69.695 L 241.675 52.308 L 224.289 56.967 L 228.947 74.354 Z M 224.237 56.774 L 241.624 52.115 L 236.965 34.728 L 219.578 39.387 L 224.237 56.774 Z M 219.526 39.194 L 236.913 34.535 L 232.254 17.148 L 214.868 21.807 L 219.526 39.194 Z M 257.326 39.625 L 274.713 34.967 L 270.054 17.58 L 252.667 22.239 L 257.326 39.625 Z" vector-effect="non-scaling-stroke"/></g></svg>