<svg width="360.897mm" height="152.054mm" viewBox="0 0 360.897 152.054" xmlns="http://www.w3.org/2000/svg"><g id="svgGroup" stroke-linecap="round" fill-rule="evenodd" font-size="9pt" stroke="#ddd" stroke-width="0.25mm" fill="none" style="stroke:#ddd;stroke-width:0.25mm;fill:none"><path d="M 334.086 0 L 26.811 0 L 0 152.054 L 360.897 152.054 L 334.086 0 Z M 24.862 64.034 L 42.589 67.16 L 45.714 49.434 L 27.988 46.308 L 24.862 64.034 Z M 28.023 46.111 L 45.749 49.237 L 48.875 31.51 L 31.148 28.384 L 28.023 46.111 Z M 31.183 28.187 L 48.91 31.313 L 52.035 13.587 L 34.309 10.461 L 31.183 28.187 Z M 318.309 67.16 L 336.035 64.034 L 332.91 46.308 L 315.183 49.434 L 318.309 67.16 Z M 315.148 49.237 L 332.875 46.111 L 329.749 28.384 L 312.023 31.51 L 315.148 49.237 Z M 311.988 31.313 L 329.714 28.187 L 326.589 10.461 L 308.862 13.587 L 311.988 31.313 Z M 79.17 98.981 L 95.974 105.432 L 102.425 88.628 L 85.62 82.177 L 79.17 98.981 Z M 264.923 105.432 L 281.728 98.981 L 275.277 82.177 L 258.473 88.628 L 264.923 105.432 Z M 255.137 121.718 L 264.408 106.289 L 248.979 97.019 L 239.708 112.448 L 255.137 121.718 Z M 96.489 106.289 L 105.76 121.718 L 121.189 112.448 L 111.918 97.019 L 96.489 106.289 Z M 106.009 122.647 L 105.695 140.644 L 123.692 140.958 L 124.006 122.961 L 106.009 122.647 Z M 255.203 140.644 L 254.889 122.647 L 236.891 122.961 L 237.206 140.958 L 255.203 140.644 Z M 73.53 21.471 L 90.917 26.129 L 95.576 8.743 L 78.189 4.084 L 73.53 21.471 Z M 89.557 31.977 L 106.944 36.636 L 111.603 19.249 L 94.216 14.59 L 89.557 31.977 Z M 101.909 56.199 L 119.296 60.858 L 123.954 43.471 L 106.568 38.812 L 101.909 56.199 Z M 106.62 38.619 L 124.006 43.278 L 128.665 25.891 L 111.278 21.233 L 106.62 38.619 Z M 49.946 39.17 L 67.333 43.828 L 71.991 26.442 L 54.605 21.783 L 49.946 39.17 Z M 68.82 39.051 L 86.207 43.709 L 90.865 26.323 L 73.479 21.664 L 68.82 39.051 Z M 80.136 67.137 L 97.523 71.795 L 102.182 54.409 L 84.795 49.75 L 80.136 67.137 Z M 84.847 49.557 L 102.233 54.215 L 106.892 36.829 L 89.506 32.17 L 84.847 49.557 Z M 97.198 73.779 L 114.585 78.438 L 119.244 61.051 L 101.857 56.392 L 97.198 73.779 Z M 45.235 56.75 L 62.622 61.408 L 67.281 44.022 L 49.894 39.363 L 45.235 56.75 Z M 54.656 21.59 L 72.043 26.249 L 76.702 8.862 L 59.315 4.203 L 54.656 21.59 Z M 64.109 56.63 L 81.496 61.289 L 86.155 43.903 L 68.768 39.244 L 64.109 56.63 Z M 298.275 61.408 L 315.662 56.75 L 311.003 39.363 L 293.617 44.022 L 298.275 61.408 Z M 293.565 43.828 L 310.952 39.17 L 306.293 21.783 L 288.906 26.442 L 293.565 43.828 Z M 279.401 61.289 L 296.788 56.63 L 292.129 39.244 L 274.743 43.903 L 279.401 61.289 Z M 269.98 26.129 L 287.367 21.471 L 282.708 4.084 L 265.322 8.743 L 269.98 26.129 Z M 258.664 54.215 L 276.051 49.557 L 271.392 32.17 L 254.005 36.829 L 258.664 54.215 Z M 288.854 26.249 L 306.241 21.59 L 301.582 4.203 L 284.196 8.862 L 288.854 26.249 Z M 263.374 71.795 L 280.761 67.137 L 276.102 49.75 L 258.716 54.409 L 263.374 71.795 Z M 253.953 36.636 L 271.34 31.977 L 266.681 14.59 L 249.295 19.249 L 253.953 36.636 Z M 246.312 78.438 L 263.699 73.779 L 259.04 56.392 L 241.654 61.051 L 246.312 78.438 Z M 241.602 60.858 L 258.988 56.199 L 254.33 38.812 L 236.943 43.471 L 241.602 60.858 Z M 236.891 43.278 L 254.278 38.619 L 249.619 21.233 L 232.233 25.891 L 236.891 43.278 Z M 274.691 43.709 L 292.078 39.051 L 287.419 21.664 L 270.032 26.323 L 274.691 43.709 Z" vector-effect="non-scaling-stroke"/></g></svg>